# Blender v3.5.0 OBJ File: 'package.blend'
# www.blender.org
mtllib package.mtl
o Package_Cube
v 1.000000 1.000000 -1.000000
v 1.000000 -1.000000 -1.000000
v 1.000000 1.000000 1.000000
v 1.000000 -1.000000 1.000000
v -1.000000 1.000000 -1.000000
v -1.000000 -1.000000 -1.000000
v -1.000000 1.000000 1.000000
v -1.000000 -1.000000 1.000000
vt 0.667673 0.999667
vt 0.833673 0.833667
vt 0.833673 0.999667
vt 0.332333 0.999667
vt 0.166333 0.833667
vt 0.332333 0.833667
vt 0.666265 0.833667
vt 0.500265 0.999667
vt 0.500265 0.833667
vt 0.499659 0.833667
vt 0.333659 0.999667
vt 0.333659 0.833667
vt 0.999673 0.833667
vt 0.999673 0.999667
vt 0.166333 0.999667
vt 0.000333 0.833667
vt 0.166333 0.833667
vt 0.667673 0.833667
vt 0.166333 0.999667
vt 0.666265 0.999667
vt 0.499659 0.999667
vt 0.000333 0.999667
vn 0.0000 1.0000 0.0000
vn 0.0000 0.0000 1.0000
vn -1.0000 0.0000 0.0000
vn 0.0000 -1.0000 0.0000
vn 1.0000 0.0000 0.0000
vn 0.0000 0.0000 -1.0000
usemtl Material
s off
f 5/1/1 3/2/1 1/3/1
f 3/4/2 8/5/2 4/6/2
f 7/7/3 6/8/3 8/9/3
f 2/10/4 8/11/4 6/12/4
f 1/3/5 4/13/5 2/14/5
f 5/15/6 2/16/6 6/17/6
f 5/1/1 7/18/1 3/2/1
f 3/4/2 7/19/2 8/5/2
f 7/7/3 5/20/3 6/8/3
f 2/10/4 4/21/4 8/11/4
f 1/3/5 3/2/5 4/13/5
f 5/15/6 1/22/6 2/16/6
